<svg xmlns="http://www.w3.org/2000/svg" viewBox="0 0 2400 1500"><g fill="#AAA"><path d="M49.5 50h1v1400h-1zm100 0h1v1400h-1zm100 0h1v1400h-1zm100 0h1v1400h-1zm100 0h1v1400h-1zm100 0h1v1400h-1zm100 0h1v1400h-1zm100 0h1v1400h-1zm100 0h1v1400h-1zm100 0h1v1400h-1zm100 0h1v1400h-1zm100 0h1v1400h-1zm100 0h1v1400h-1zm100 0h1v1400h-1zm100 0h1v1400h-1zm100 0h1v1400h-1zm100 0h1v1400h-1zm100 0h1v1400h-1zm100 0h1v1400h-1zm100 0h1v1400h-1zm100 0h1v1400h-1zm100 0h1v1400h-1zm100 0h1v1400h-1zm100 0h1v1400h-1z"/><path d="M50 49.5h2300v1H50zm0 100h2300v1H50zm0 100h2300v1H50zm0 100h2300v1H50zm0 100h2300v1H50zm0 100h2300v1H50zm0 100h2300v1H50zm0 100h2300v1H50zm0 100h2300v1H50zm0 100h2300v1H50zm0 100h2300v1H50zm0 100h2300v1H50zm0 100h2300v1H50zm0 100.5h2300v1H50zm0 100h2300v1H50z"/></g><g fill="#FFF"><path d="M99.5 35h1v1430h-1zm100 0h1v1430h-1zm100 0h1v1430h-1zm100 0h1v1430h-1zm100 0h1v1430h-1zm100 0h1v1430h-1zm100 0h1v1430h-1zm100 0h1v1430h-1zm100 0h1v1430h-1zm100 0h1v1430h-1zm100 0h1v1430h-1zm100 0h1v1430h-1zm100 0h1v1430h-1zm100 0h1v1430h-1zm100 0h1v1430h-1zm100 0h1v1430h-1zm100 0h1v1430h-1zm100 0h1v1430h-1zm100 0h1v1430h-1zm100 0h1v1430h-1zm100 0h1v1430h-1zm100 0h1v1430h-1zm100 0h1v1430h-1z"/><path d="M35 99.5h2330v1H35zm0 100.08h2330v1H35zm0 100.07h2330v1H35zm0 100.08h2330v1H35zm0 100.08h2330v1H35zm0 100.07h2330v1H35zm0 100.08h2330v1H35zm0 100.08h2330v1H35zm0 100.08h2330v1H35zm0 100.07h2330v1H35zm0 100.08h2330v1H35zm0 100.08h2330v1H35zm0 100.07h2330v1H35zm0 100.08h2330v1H35z"/></g><path fill="#AAA" d="M49.5 0h1v20h-1zm200 0h1v20h-1z"/><path fill="#AAA" d="M49.5 0h1v20h-1zm100 0h1v20h-1z"/><path fill="none" d="M250.5 0v20"/><path fill="#AAA" d="M349.5 0h1v20h-1zm100 0h1v20h-1zm100 0h1v20h-1z"/><path fill="none" d="M650.5 0v20"/><path fill="#AAA" d="M749.5 0h1v20h-1zm100 0h1v20h-1zm-200 0h1v20h-1zm300 0h1v20h-1zm100 0h1v20h-1zm100 0h1v20h-1zm100 0h1v20h-1zm100 0h1v20h-1zm100 0h1v20h-1zm200 0h1v20h-1zm100 0h1v20h-1zm-200 0h1v20h-1zm300 0h1v20h-1zm100 0h1v20h-1zm200 0h1v20h-1zm100 0h1v20h-1zm100 0h1v20h-1zm-300 0h1v20h-1z"/><path fill="#FFF" d="M99.5 0h1v10h-1zm200 0h1v10h-1z"/><path fill="#FFF" d="M99.5 0h1v10h-1zm100 0h1v10h-1z"/><path fill="none" d="M300.5 0v10"/><path fill="#FFF" d="M399.5 0h1v10h-1zm100 0h1v10h-1zm100 0h1v10h-1z"/><path fill="none" d="M700.5 0v10"/><path fill="#FFF" d="M799.5 0h1v10h-1zm100 0h1v10h-1zm-200 0h1v10h-1zm300 0h1v10h-1zm100 0h1v10h-1zm100 0h1v10h-1zm100 0h1v10h-1zm100 0h1v10h-1zm100 0h1v10h-1zm200 0h1v10h-1zm100 0h1v10h-1zm-200 0h1v10h-1zm300 0h1v10h-1zm100 0h1v10h-1zm200 0h1v10h-1zm100 0h1v10h-1zm-200 0h1v10h-1zM99.5 1490h1v10h-1zm200 0h1v10h-1z"/><path fill="#FFF" d="M99.5 1490h1v10h-1zm100 0h1v10h-1z"/><path fill="none" d="M300.5 1490v10"/><path fill="#FFF" d="M399.5 1490h1v10h-1zm100 0h1v10h-1zm100 0h1v10h-1z"/><path fill="none" d="M700.5 1490v10"/><path fill="#FFF" d="M799.5 1490h1v10h-1zm100 0h1v10h-1zm-200 0h1v10h-1zm300 0h1v10h-1zm100 0h1v10h-1zm100 0h1v10h-1zm100 0h1v10h-1zm100 0h1v10h-1zm100 0h1v10h-1zm200 0h1v10h-1zm100 0h1v10h-1zm-200 0h1v10h-1zm300 0h1v10h-1zm100 0h1v10h-1zm200 0h1v10h-1zm100 0h1v10h-1zm-200 0h1v10h-1zM0 200h10v1H0zm0-100h10v1H0z"/><path fill="none" d="M10 201H0"/><path fill="#FFF" d="M0 300h10v1H0zm0 100h10v1H0zm0 100h10v1H0z"/><path fill="none" d="M10 601H0"/><path fill="#FFF" d="M0 700h10v1H0zm0 100h10v1H0zm0-200h10v1H0zm0 300h10v1H0zm0 100h10v1H0zm0 100h10v1H0zm0 100h10v1H0zm0 100h10v1H0zm0 100h10v1H0z"/><path fill="#AAA" d="M49.5 1480h1v20h-1zm200 0h1v20h-1z"/><path fill="#AAA" d="M49.5 1480h1v20h-1zm100 0h1v20h-1z"/><path fill="none" d="M250.5 1480v20"/><path fill="#AAA" d="M349.5 1480h1v20h-1zm100 0h1v20h-1zm100 0h1v20h-1z"/><path fill="none" d="M650.5 1480v20"/><path fill="#AAA" d="M749.5 1480h1v20h-1zm100 0h1v20h-1zm-200 0h1v20h-1zm300 0h1v20h-1zm100 0h1v20h-1zm100 0h1v20h-1zm100 0h1v20h-1zm100 0h1v20h-1zm100 0h1v20h-1zm200 0h1v20h-1zm100 0h1v20h-1zm-200 0h1v20h-1zm300 0h1v20h-1zm100 0h1v20h-1zm200 0h1v20h-1zm100 0h1v20h-1zm100 0h1v20h-1zm-300 0h1v20h-1zM24.5 0h1v7.5h-1zm200 0h1v7.5h-1z"/><path fill="#AAA" d="M24.5 0h1v7.5h-1zm100 0h1v7.5h-1z"/><path fill="none" d="M225.5 0v7.5"/><path fill="#AAA" d="M324.5 0h1v7.5h-1zm100 0h1v7.5h-1zm100 0h1v7.5h-1z"/><path fill="none" d="M625.5 0v7.5"/><path fill="#AAA" d="M724.5 0h1v7.5h-1zm100 0h1v7.5h-1zm-200 0h1v7.5h-1zm300 0h1v7.5h-1zm100 0h1v7.5h-1zm100 0h1v7.5h-1zm100 0h1v7.5h-1zm100 0h1v7.5h-1zm100 0h1v7.5h-1zm200 0h1v7.5h-1zm100 0h1v7.5h-1zm-200 0h1v7.5h-1zm300 0h1v7.5h-1zm100 0h1v7.5h-1zm200 0h1v7.5h-1zm100 0h1v7.5h-1zm100 0h1v7.5h-1zm-300 0h1v7.5h-1zM12 0h1v5h-1zm200 0h1v5h-1z"/><path fill="#AAA" d="M12 0h1v5h-1zm100 0h1v5h-1z"/><path fill="none" d="M213 0v5"/><path fill="#AAA" d="M312 0h1v5h-1zm100 0h1v5h-1zm100 0h1v5h-1z"/><path fill="none" d="M613 0v5"/><path fill="#AAA" d="M712 0h1v5h-1zm100 0h1v5h-1zM612 0h1v5h-1zm300 0h1v5h-1zm100 0h1v5h-1zm100 0h1v5h-1zm100 0h1v5h-1zm100 0h1v5h-1zm100 0h1v5h-1zm200 0h1v5h-1zm100 0h1v5h-1zm-200 0h1v5h-1zm300 0h1v5h-1zm100 0h1v5h-1zm200 0h1v5h-1zm100 0h1v5h-1zm100 0h1v5h-1zm-300 0h1v5h-1zM62 0h1v5h-1zm200 0h1v5h-1z"/><path fill="#AAA" d="M62 0h1v5h-1zm100 0h1v5h-1z"/><path fill="none" d="M263 0v5"/><path fill="#AAA" d="M362 0h1v5h-1zm100 0h1v5h-1zm100 0h1v5h-1z"/><path fill="none" d="M663 0v5"/><path fill="#AAA" d="M762 0h1v5h-1zm100 0h1v5h-1zM662 0h1v5h-1zm300 0h1v5h-1zm100 0h1v5h-1zm100 0h1v5h-1zm100 0h1v5h-1zm100 0h1v5h-1zm100 0h1v5h-1zm200 0h1v5h-1zm100 0h1v5h-1zm-200 0h1v5h-1zm300 0h1v5h-1zm100 0h1v5h-1zm200 0h1v5h-1zm100 0h1v5h-1zm100 0h1v5h-1zm-300 0h1v5h-1zM36.5 0h1v5h-1zm200 0h1v5h-1z"/><path fill="#AAA" d="M36.5 0h1v5h-1zm100 0h1v5h-1z"/><path fill="none" d="M237.5 0v5"/><path fill="#AAA" d="M336.5 0h1v5h-1zm100 0h1v5h-1zm100 0h1v5h-1z"/><path fill="none" d="M637.5 0v5"/><path fill="#AAA" d="M736.5 0h1v5h-1zm100 0h1v5h-1zm-200 0h1v5h-1zm300 0h1v5h-1zm100 0h1v5h-1zm100 0h1v5h-1zm100 0h1v5h-1zm100 0h1v5h-1zm100 0h1v5h-1zm200 0h1v5h-1zm100 0h1v5h-1zm-200 0h1v5h-1zm300 0h1v5h-1zm100 0h1v5h-1zm200 0h1v5h-1zm100 0h1v5h-1zm100 0h1v5h-1zm-300 0h1v5h-1zM87 0h1v5h-1zm200 0h1v5h-1z"/><path fill="#AAA" d="M87 0h1v5h-1zm100 0h1v5h-1z"/><path fill="none" d="M288 0v5"/><path fill="#AAA" d="M387 0h1v5h-1zm100 0h1v5h-1zm100 0h1v5h-1z"/><path fill="none" d="M688 0v5"/><path fill="#AAA" d="M787 0h1v5h-1zm100 0h1v5h-1zM687 0h1v5h-1zm300 0h1v5h-1zm100 0h1v5h-1zm100 0h1v5h-1zm100 0h1v5h-1zm100 0h1v5h-1zm100 0h1v5h-1zm200 0h1v5h-1zm100 0h1v5h-1zm-200 0h1v5h-1zm300 0h1v5h-1zm100 0h1v5h-1zm200 0h1v5h-1zm100 0h1v5h-1zm100 0h1v5h-1zm-300 0h1v5h-1zM74.5 0h1v7.5h-1zm200 0h1v7.5h-1z"/><path fill="#AAA" d="M74.5 0h1v7.5h-1zm100 0h1v7.5h-1z"/><path fill="none" d="M275.5 0v7.5"/><path fill="#AAA" d="M374.5 0h1v7.5h-1zm100 0h1v7.5h-1zm100 0h1v7.5h-1z"/><path fill="none" d="M675.5 0v7.5"/><path fill="#AAA" d="M774.5 0h1v7.5h-1zm100 0h1v7.5h-1zm-200 0h1v7.5h-1zm300 0h1v7.5h-1zm100 0h1v7.5h-1zm100 0h1v7.5h-1zm100 0h1v7.5h-1zm100 0h1v7.5h-1zm100 0h1v7.5h-1zm200 0h1v7.5h-1zm100 0h1v7.5h-1zm-200 0h1v7.5h-1zm300 0h1v7.5h-1zm100 0h1v7.5h-1zm200 0h1v7.5h-1zm100 0h1v7.5h-1zm100 0h1v7.5h-1zm-300 0h1v7.5h-1zM24.5 1492.5h1v7.5h-1zm200 0h1v7.5h-1z"/><path fill="#AAA" d="M24.5 1492.5h1v7.5h-1zm100 0h1v7.5h-1z"/><path fill="none" d="M225.5 1492.5v7.5"/><path fill="#AAA" d="M324.5 1492.5h1v7.5h-1zm100 0h1v7.5h-1zm100 0h1v7.5h-1z"/><path fill="none" d="M625.5 1492.5v7.5"/><path fill="#AAA" d="M724.5 1492.5h1v7.5h-1zm100 0h1v7.5h-1zm-200 0h1v7.5h-1zm300 0h1v7.5h-1zm100 0h1v7.5h-1zm100 0h1v7.5h-1zm100 0h1v7.5h-1zm100 0h1v7.5h-1zm100 0h1v7.5h-1zm200 0h1v7.5h-1zm100 0h1v7.5h-1zm-200 0h1v7.5h-1zm300 0h1v7.5h-1zm100 0h1v7.5h-1zm200 0h1v7.5h-1zm100 0h1v7.5h-1zm100 0h1v7.5h-1zm-300 0h1v7.5h-1zm-1950 0h1v7.5h-1zm200 0h1v7.5h-1z"/><path fill="#AAA" d="M74.5 1492.5h1v7.5h-1zm100 0h1v7.5h-1z"/><path fill="none" d="M275.5 1492.5v7.5"/><path fill="#AAA" d="M374.5 1492.5h1v7.5h-1zm100 0h1v7.5h-1zm100 0h1v7.5h-1z"/><path fill="none" d="M675.5 1492.5v7.5"/><path fill="#AAA" d="M774.5 1492.5h1v7.5h-1zm100 0h1v7.5h-1zm-200 0h1v7.5h-1zm300 0h1v7.5h-1zm100 0h1v7.5h-1zm100 0h1v7.5h-1zm100 0h1v7.5h-1zm100 0h1v7.5h-1zm100 0h1v7.5h-1zm200 0h1v7.5h-1zm100 0h1v7.5h-1zm-200 0h1v7.5h-1zm300 0h1v7.5h-1zm100 0h1v7.5h-1zm200 0h1v7.5h-1zm100 0h1v7.5h-1zm100 0h1v7.5h-1zm-300 0h1v7.5h-1zm-2062 2.5h1v5h-1zm200 0h1v5h-1z"/><path fill="#AAA" d="M12.5 1495h1v5h-1zm100 0h1v5h-1z"/><path fill="none" d="M213.5 1495v5"/><path fill="#AAA" d="M312.5 1495h1v5h-1zm100 0h1v5h-1zm100 0h1v5h-1z"/><path fill="none" d="M613.5 1495v5"/><path fill="#AAA" d="M712.5 1495h1v5h-1zm100 0h1v5h-1zm-200 0h1v5h-1zm300 0h1v5h-1zm100 0h1v5h-1zm100 0h1v5h-1zm100 0h1v5h-1zm100 0h1v5h-1zm100 0h1v5h-1zm200 0h1v5h-1zm100 0h1v5h-1zm-200 0h1v5h-1zm300 0h1v5h-1zm100 0h1v5h-1zm200 0h1v5h-1zm100 0h1v5h-1zm100 0h1v5h-1zm-300 0h1v5h-1zm-1950 0h1v5h-1zm200 0h1v5h-1z"/><path fill="#AAA" d="M62.5 1495h1v5h-1zm100 0h1v5h-1z"/><path fill="none" d="M263.5 1495v5"/><path fill="#AAA" d="M362.5 1495h1v5h-1zm100 0h1v5h-1zm100 0h1v5h-1z"/><path fill="none" d="M663.5 1495v5"/><path fill="#AAA" d="M762.5 1495h1v5h-1zm100 0h1v5h-1zm-200 0h1v5h-1zm300 0h1v5h-1zm100 0h1v5h-1zm100 0h1v5h-1zm100 0h1v5h-1zm100 0h1v5h-1zm100 0h1v5h-1zm200 0h1v5h-1zm100 0h1v5h-1zm-200 0h1v5h-1zm300 0h1v5h-1zm100 0h1v5h-1zm200 0h1v5h-1zm100 0h1v5h-1zm100 0h1v5h-1zm-300 0h1v5h-1zm-2025 0h1v5h-1zm200 0h1v5h-1z"/><path fill="#AAA" d="M37.5 1495h1v5h-1zm100 0h1v5h-1z"/><path fill="none" d="M238.5 1495v5"/><path fill="#AAA" d="M337.5 1495h1v5h-1zm100 0h1v5h-1zm100 0h1v5h-1z"/><path fill="none" d="M638.5 1495v5"/><path fill="#AAA" d="M737.5 1495h1v5h-1zm100 0h1v5h-1zm-200 0h1v5h-1zm300 0h1v5h-1zm100 0h1v5h-1zm100 0h1v5h-1zm100 0h1v5h-1zm100 0h1v5h-1zm100 0h1v5h-1zm200 0h1v5h-1zm100 0h1v5h-1zm-200 0h1v5h-1zm300 0h1v5h-1zm100 0h1v5h-1zm200 0h1v5h-1zm100 0h1v5h-1zm100 0h1v5h-1zm-300 0h1v5h-1zm-1951 0h1v5h-1zm200 0h1v5h-1z"/><path fill="#AAA" d="M86.5 1495h1v5h-1zm100 0h1v5h-1z"/><path fill="none" d="M287.5 1495v5"/><path fill="#AAA" d="M386.5 1495h1v5h-1zm100 0h1v5h-1zm100 0h1v5h-1z"/><path fill="none" d="M687.5 1495v5"/><path fill="#AAA" d="M786.5 1495h1v5h-1zm100 0h1v5h-1zm-200 0h1v5h-1zm300 0h1v5h-1zm100 0h1v5h-1zm100 0h1v5h-1zm100 0h1v5h-1zm100 0h1v5h-1zm100 0h1v5h-1zm200 0h1v5h-1zm100 0h1v5h-1zm-200 0h1v5h-1zm300 0h1v5h-1zm100 0h1v5h-1zm200 0h1v5h-1zm100 0h1v5h-1zm100 0h1v5h-1zm-300 0h1v5h-1zM0 49h20v1H0zm0 200h20v1H0z"/><path fill="#AAA" d="M0 49h20v1H0zm0 100h20v1H0z"/><path fill="none" d="M20 250H0"/><path fill="#AAA" d="M0 349h20v1H0zm0 100h20v1H0zm0 100h20v1H0z"/><path fill="none" d="M20 650H0"/><path fill="#AAA" d="M0 749h20v1H0zm0 100h20v1H0zm0-200h20v1H0zm0 300h20v1H0zm0 100h20v1H0zm0 100h20v1H0zm0 100h20v1H0zm0 100h20v1H0zm0 100h20v1H0zM0 24.5h7.5v1H0zm0 200h7.5v1H0z"/><path fill="#AAA" d="M0 24.5h7.5v1H0zm0 100h7.5v1H0z"/><path fill="none" d="M7.5 225.5H0"/><path fill="#AAA" d="M0 324.5h7.5v1H0zm0 100h7.5v1H0zm0 100h7.5v1H0z"/><path fill="none" d="M7.5 625.5H0"/><path fill="#AAA" d="M0 724.5h7.5v1H0zm0 100h7.5v1H0zm0-200h7.5v1H0zm0 300h7.5v1H0zm0 100h7.5v1H0zm0 100h7.5v1H0zm0 100h7.5v1H0zm0 100h7.5v1H0zm0 100h7.5v1H0zm0-1350h7.5v1H0zm0 200h7.5v1H0z"/><path fill="#AAA" d="M0 74.5h7.5v1H0zm0 100h7.5v1H0z"/><path fill="none" d="M7.5 275.5H0"/><path fill="#AAA" d="M0 374.5h7.5v1H0zm0 100h7.5v1H0zm0 100h7.5v1H0z"/><path fill="none" d="M7.5 675.5H0"/><path fill="#AAA" d="M0 774.5h7.5v1H0zm0 100h7.5v1H0zm0-200h7.5v1H0zm0 300h7.5v1H0zm0 100h7.5v1H0zm0 100h7.5v1H0zm0 100h7.5v1H0zm0 100h7.5v1H0zm0 100h7.5v1H0zM0 12h5v1H0zm0 200h5v1H0z"/><path fill="#AAA" d="M0 12h5v1H0zm0 100h5v1H0z"/><path fill="none" d="M5 213H0"/><path fill="#AAA" d="M0 312h5v1H0zm0 100h5v1H0zm0 100h5v1H0z"/><path fill="none" d="M5 613H0"/><path fill="#AAA" d="M0 712h5v1H0zm0 100h5v1H0zm0-200h5v1H0zm0 300h5v1H0zm0 100h5v1H0zm0 100h5v1H0zm0 100h5v1H0zm0 100h5v1H0zm0 100h5v1H0zM0 62h5v1H0zm0 200h5v1H0z"/><path fill="#AAA" d="M0 62h5v1H0zm0 100h5v1H0z"/><path fill="none" d="M5 263H0"/><path fill="#AAA" d="M0 362h5v1H0zm0 100h5v1H0zm0 100h5v1H0z"/><path fill="none" d="M5 663H0"/><path fill="#AAA" d="M0 762h5v1H0zm0 100h5v1H0zm0-200h5v1H0zm0 300h5v1H0zm0 100h5v1H0zm0 100h5v1H0zm0 100h5v1H0zm0 100h5v1H0zm0 100h5v1H0zM0 37h5v1H0zm0 200h5v1H0z"/><path fill="#AAA" d="M0 37h5v1H0zm0 100h5v1H0z"/><path fill="none" d="M5 238H0"/><path fill="#AAA" d="M0 337h5v1H0zm0 100h5v1H0zm0 100h5v1H0z"/><path fill="none" d="M5 638H0"/><path fill="#AAA" d="M0 737h5v1H0zm0 100h5v1H0zm0-200h5v1H0zm0 300h5v1H0zm0 100h5v1H0zm0 100h5v1H0zm0 100h5v1H0zm0 100h5v1H0zm0 100h5v1H0zM0 87h5v1H0zm0 200h5v1H0z"/><path fill="#AAA" d="M0 87h5v1H0zm0 100h5v1H0z"/><path fill="none" d="M5 288H0"/><path fill="#AAA" d="M0 387h5v1H0zm0 100h5v1H0zm0 100h5v1H0z"/><path fill="none" d="M5 688H0"/><path fill="#AAA" d="M0 787h5v1H0zm0 100h5v1H0zm0-200h5v1H0zm0 300h5v1H0zm0 100h5v1H0zm0 100h5v1H0zm0 100h5v1H0zm0 100h5v1H0zm0 100h5v1H0z"/><path fill="#FFF" d="M2390 200h10v1h-10zm0-100h10v1h-10z"/><path fill="none" d="M2400 201h-10"/><path fill="#FFF" d="M2390 300h10v1h-10zm0 100h10v1h-10zm0 100h10v1h-10z"/><path fill="none" d="M2400 601h-10"/><path fill="#FFF" d="M2390 700h10v1h-10zm0 100h10v1h-10zm0-200h10v1h-10zm0 300h10v1h-10zm0 100h10v1h-10zm0 100h10v1h-10zm0 100h10v1h-10zm0 100h10v1h-10zm0 100h10v1h-10z"/><path fill="#AAA" d="M2380 49h20v1h-20zm0 200h20v1h-20z"/><path fill="#AAA" d="M2380 49h20v1h-20zm0 100h20v1h-20z"/><path fill="none" d="M2400 250h-20"/><path fill="#AAA" d="M2380 349h20v1h-20zm0 100h20v1h-20zm0 100h20v1h-20z"/><path fill="none" d="M2400 650h-20"/><path fill="#AAA" d="M2380 749h20v1h-20zm0 100h20v1h-20zm0-200h20v1h-20zm0 300h20v1h-20zm0 100h20v1h-20zm0 100h20v1h-20zm0 100h20v1h-20zm0 100h20v1h-20zm0 100h20v1h-20zm12.5-1424.5h7.5v1h-7.5zm0 200h7.5v1h-7.5z"/><path fill="#AAA" d="M2392.5 24.5h7.5v1h-7.5zm0 100h7.5v1h-7.5z"/><path fill="none" d="M2400 225.5h-7.5"/><path fill="#AAA" d="M2392.5 324.5h7.5v1h-7.5zm0 100h7.5v1h-7.5zm0 100h7.5v1h-7.5z"/><path fill="none" d="M2400 625.5h-7.5"/><path fill="#AAA" d="M2392.5 724.5h7.5v1h-7.5zm0 100h7.5v1h-7.5zm0-200h7.5v1h-7.5zm0 300h7.5v1h-7.5zm0 100h7.5v1h-7.5zm0 100h7.5v1h-7.5zm0 100h7.5v1h-7.5zm0 100h7.5v1h-7.5zm0 100h7.5v1h-7.5zm0-1350h7.5v1h-7.5zm0 200h7.5v1h-7.5z"/><path fill="#AAA" d="M2392.5 74.5h7.5v1h-7.5zm0 100h7.5v1h-7.5z"/><path fill="none" d="M2400 275.5h-7.5"/><path fill="#AAA" d="M2392.5 374.5h7.5v1h-7.5zm0 100h7.5v1h-7.5zm0 100h7.5v1h-7.5z"/><path fill="none" d="M2400 675.5h-7.5"/><path fill="#AAA" d="M2392.5 774.5h7.5v1h-7.5zm0 100h7.5v1h-7.5zm0-200h7.5v1h-7.5zm0 300h7.5v1h-7.5zm0 100h7.5v1h-7.5zm0 100h7.5v1h-7.5zm0 100h7.5v1h-7.5zm0 100h7.5v1h-7.5zm0 100h7.5v1h-7.5zM2395 12h5v1h-5zm0 200h5v1h-5z"/><path fill="#AAA" d="M2395 12h5v1h-5zm0 100h5v1h-5z"/><path fill="none" d="M2400 213h-5"/><path fill="#AAA" d="M2395 312h5v1h-5zm0 100h5v1h-5zm0 100h5v1h-5z"/><path fill="none" d="M2400 613h-5"/><path fill="#AAA" d="M2395 712h5v1h-5zm0 100h5v1h-5zm0-200h5v1h-5zm0 300h5v1h-5zm0 100h5v1h-5zm0 100h5v1h-5zm0 100h5v1h-5zm0 100h5v1h-5zm0 100h5v1h-5zm0-1350h5v1h-5zm0 200h5v1h-5z"/><path fill="#AAA" d="M2395 62h5v1h-5zm0 100h5v1h-5z"/><path fill="none" d="M2400 263h-5"/><path fill="#AAA" d="M2395 362h5v1h-5zm0 100h5v1h-5zm0 100h5v1h-5z"/><path fill="none" d="M2400 663h-5"/><path fill="#AAA" d="M2395 762h5v1h-5zm0 100h5v1h-5zm0-200h5v1h-5zm0 300h5v1h-5zm0 100h5v1h-5zm0 100h5v1h-5zm0 100h5v1h-5zm0 100h5v1h-5zm0 100h5v1h-5zm0-1425h5v1h-5zm0 200h5v1h-5z"/><path fill="#AAA" d="M2395 37h5v1h-5zm0 100h5v1h-5z"/><path fill="none" d="M2400 238h-5"/><path fill="#AAA" d="M2395 337h5v1h-5zm0 100h5v1h-5zm0 100h5v1h-5z"/><path fill="none" d="M2400 638h-5"/><path fill="#AAA" d="M2395 737h5v1h-5zm0 100h5v1h-5zm0-200h5v1h-5zm0 300h5v1h-5zm0 100h5v1h-5zm0 100h5v1h-5zm0 100h5v1h-5zm0 100h5v1h-5zm0 100h5v1h-5zm0-1350h5v1h-5zm0 200h5v1h-5z"/><path fill="#AAA" d="M2395 87h5v1h-5zm0 100h5v1h-5z"/><path fill="none" d="M2400 288h-5"/><path fill="#AAA" d="M2395 387h5v1h-5zm0 100h5v1h-5zm0 100h5v1h-5z"/><path fill="none" d="M2400 688h-5"/><path fill="#AAA" d="M2395 787h5v1h-5zm0 100h5v1h-5zm0-200h5v1h-5zm0 300h5v1h-5zm0 100h5v1h-5zm0 100h5v1h-5zm0 100h5v1h-5zm0 100h5v1h-5zm0 100h5v1h-5zm-2320.5 5.5h1v7.5h-1zm200 0h1v7.5h-1z"/><path fill="#AAA" d="M74.5 1492.5h1v7.5h-1zm100 0h1v7.5h-1z"/><path fill="none" d="M275.5 1492.5v7.5"/><path fill="#AAA" d="M374.5 1492.5h1v7.5h-1zm100 0h1v7.5h-1zm100 0h1v7.5h-1z"/><path fill="none" d="M675.5 1492.5v7.5"/><path fill="#AAA" d="M774.5 1492.5h1v7.5h-1zm100 0h1v7.5h-1zm-200 0h1v7.5h-1zm300 0h1v7.5h-1zm100 0h1v7.5h-1zm100 0h1v7.5h-1zm100 0h1v7.5h-1zm100 0h1v7.5h-1zm100 0h1v7.5h-1zm200 0h1v7.5h-1zm100 0h1v7.5h-1zm-200 0h1v7.5h-1zm300 0h1v7.5h-1zm100 0h1v7.5h-1zm200 0h1v7.5h-1zm100 0h1v7.5h-1zm100 0h1v7.5h-1zm-300 0h1v7.5h-1z"/><g fill="#DDD" font-family="'Helvetica-Bold'" font-size="12"><text transform="translate(89.99 26)">100</text><text transform="translate(11.643 104)">100</text><text transform="translate(11.643 204)">200</text><text transform="translate(11.643 304)">300</text><text transform="translate(11.643 404)">400</text><text transform="translate(11.643 504)">500</text><text transform="translate(11.643 604)">600</text><text transform="translate(11.643 704)">700</text><text transform="translate(11.643 804)">800</text><text transform="translate(11.643 904)">900</text><text transform="translate(8.306 1004)">1000</text><text transform="translate(8.634 1104)">1100</text><text transform="translate(8.306 1204)">1200</text><text transform="translate(8.306 1304)">1300</text><text transform="translate(8.306 1404)">1400</text><text transform="translate(2369.98 104)">100</text><text transform="translate(2369.98 204)">200</text><text transform="translate(2369.98 304)">300</text><text transform="translate(2369.98 404)">400</text><text transform="translate(2369.98 504)">500</text><text transform="translate(2369.98 604)">600</text><text transform="translate(2369.98 704)">700</text><text transform="translate(2369.98 804)">800</text><text transform="translate(2369.98 904)">900</text><text transform="translate(2363.307 1004)">1000</text><text transform="translate(2363.963 1104)">1100</text><text transform="translate(2363.307 1204)">1200</text><text transform="translate(2363.307 1304)">1300</text><text transform="translate(2363.307 1404)">1400</text><text transform="translate(189.99 26)">200</text><text transform="translate(289.99 26)">300</text><text transform="translate(389.99 26)">400</text><text transform="translate(689.99 26)">700</text><text transform="translate(789.99 26)">800</text><text transform="translate(889.99 26)">900</text><text transform="translate(489.99 26)">500</text><text transform="translate(589.99 26)">600</text><text transform="translate(986.652 26)">1000</text><text transform="translate(1086.652 26)">1100</text><text transform="translate(1186.652 26)">1200</text><text transform="translate(1286.652 26)">1300</text><text transform="translate(1586.652 26)">1600</text><text transform="translate(1686.652 26)">1700</text><text transform="translate(1786.652 26)">1800</text><text transform="translate(1386.652 26)">1400</text><text transform="translate(1486.652 26)">1500</text><text transform="translate(1886.652 26)">1900</text><text transform="translate(1986.652 26)">2000</text><text transform="translate(2086.652 26)">2100</text><text transform="translate(2186.652 26)">2200</text><text transform="translate(2286.652 26)">2300</text><text transform="translate(89.99 1480.318)">100</text><text transform="translate(189.99 1480.318)">200</text><text transform="translate(289.99 1480.318)">300</text><text transform="translate(389.99 1480.318)">400</text><text transform="translate(689.99 1480.318)">700</text><text transform="translate(789.99 1480.318)">800</text><text transform="translate(889.99 1480.318)">900</text><text transform="translate(489.99 1480.318)">500</text><text transform="translate(589.99 1480.318)">600</text><text transform="translate(986.652 1480.318)">1000</text><text transform="translate(1086.652 1480.318)">1100</text><text transform="translate(1186.652 1480.318)">1200</text><text transform="translate(1286.652 1480.318)">1300</text><text transform="translate(1586.652 1480.318)">1600</text><text transform="translate(1686.652 1480.318)">1700</text><text transform="translate(1786.652 1480.318)">1800</text><text transform="translate(1386.652 1480.318)">1400</text><text transform="translate(1486.652 1480.318)">1500</text><text transform="translate(1886.652 1480.318)">1900</text><text transform="translate(1986.652 1480.318)">2000</text><text transform="translate(2086.652 1480.318)">2100</text><text transform="translate(2186.652 1480.318)">2200</text><text transform="translate(2286.652 1480.318)">2300</text></g></svg>